<?xml version="1.0" encoding="UTF-8"?>
<svg width="1024" height="1024" clip-rule="evenodd" fill-rule="evenodd" stroke-linejoin="round" stroke-miterlimit="2" version="1.1" viewBox="0 0 1024 1024" xml:space="preserve" xmlns="http://www.w3.org/2000/svg"><g transform="matrix(84.97 0 0 84.97 2.1815 24.327)" fill="#b882ff"><path d="m6.279 3.161c-0.167 0.119-0.391 0.119-0.558 0-0.256-0.183-0.639-0.457-0.94-0.672-0.115-0.082-0.188-0.21-0.199-0.351-0.012-0.14 0.039-0.279 0.139-0.379l0.94-0.94c0.187-0.187 0.491-0.187 0.678 0l0.94 0.94c0.1 0.1 0.151 0.239 0.139 0.379-0.011 0.141-0.084 0.269-0.199 0.351-0.301 0.215-0.684 0.489-0.94 0.672z"/><path d="m8.092 3.522c0.156-0.099 0.354-0.1 0.511-3e-3 0.037 0.023 0.076 0.047 0.115 0.072 0.096 0.059 0.158 0.159 0.169 0.271 0.01 0.112-0.032 0.223-0.115 0.299-0.607 0.561-1.855 1.712-2.446 2.258-0.184 0.17-0.468 0.17-0.652 0-0.591-0.546-1.839-1.697-2.446-2.258-0.083-0.076-0.125-0.187-0.115-0.299 0.011-0.112 0.073-0.212 0.169-0.271 0.039-0.025 0.078-0.049 0.115-0.072 0.157-0.097 0.355-0.096 0.511 3e-3 0.45 0.286 1.382 0.879 1.834 1.167 0.158 0.1 0.358 0.1 0.516 0 0.452-0.288 1.384-0.881 1.834-1.167z"/><path d="m2.185 5.28c-0.183 0-0.351 0.105-0.431 0.27-0.081 0.165-0.06 0.361 0.053 0.506 0.944 1.206 2.729 3.486 3.425 4.376 0.182 0.232 0.461 0.368 0.756 0.368h0.024c0.295 0 0.574-0.136 0.756-0.368 0.696-0.89 2.481-3.17 3.425-4.376 0.113-0.145 0.134-0.341 0.053-0.506-0.08-0.165-0.248-0.27-0.431-0.27h-0.02c-0.125 0-0.245 0.049-0.335 0.136-0.456 0.443-1.92 1.868-2.791 2.715-0.372 0.363-0.966 0.363-1.338 0-0.871-0.847-2.335-2.272-2.791-2.715-0.09-0.087-0.21-0.136-0.335-0.136z"/></g></svg>
